<?xml version="1.0" encoding="utf-8"?>
<?xml-stylesheet type="text/xsl" href="rss1.xsl"?>
<rss version="2.0" xmlns:atom="http://www.w3.org/2005/Atom" xmlns:content="http://purl.org/rss/1.0/modules/content/" xmlns:dc="http://purl.org/dc/elements/1.1/" xmlns:media="http://search.yahoo.com/mrss/">
<channel>
 <title>Getty</title>
 <link>http://www.gettyimg.com/</link>
 <atom:link href="http://www.gettyimg.com/" rel="self" type="application/rss+xml" />

 
                <item>
                <title><![CDATA[【HD Live Performances】HDTV - Mushroom 50th Concert Live [26 Nov 2023 7HD]-1080i_DD2.0_azamusic]]></title>
                <link><![CDATA[https://sharemania.us/threads/mushroom-50th-concert-live-26-nov-2023-7hd-1080i_dd2-0_azamusic.232908/]]></link>
                <description><![CDATA[<article>
<blockquote class="messageText SelectQuoteContainer ugc baseHtml">
<span style="font-size: 18px">Celebrates 50 Years of Mushroom Records here ins Australia - in a live music concert in Melbourne. Variety of aussie artists include:<br>
</span><br>
Amy Shark<br>
Birds of Tokyo<br>
Bliss n Eso<br>
Christine Anu<br>
DMA’s<br>
Dan Sultan<br>
Deborah Conway &amp; Willy Zygier<br>
Diesel<br>
Frente!<br>
Goanna<br>
Gordi<br>
Hunters &amp; Collectors<br>
Ian Moss<br>
Jimmy Barnes<br>
Kate Ceberano<br>
Leonardo’s Bride<br>
Logan<br>
Machinations<br>
Mark Seymour<br>
Missy Higgins<br>
Paul Kelly<br>
Ross Wilson<br>
The Rubens<br>
The Temper Trap<br>
The Teskey Brothers<br>
Vika &amp; Linda<br>
WILSN<br>
Yothu Yindi<br>
<br>
<div class="ToggleTriggerAnchor bbCodeSpoilerContainer">
<button type="button" class="button bbCodeSpoilerButton ToggleTrigger Tooltip JsOnly" data-target="> .SpoilerTarget"><span>Spoiler: <span class="SpoilerTitle">Media Info</span></span></button>
<div class="SpoilerTarget bbCodeSpoilerText">General<br>
ID : 1 (0x1)<br>
Complete name : D:\Mushroom 50th Concert Live [26 Nov 2023 7HD]_1080i_DD2.0_azamusic.ts<br>
Format : MPEG-TS<br>
File size : 8.71 GiB<br>
Duration : 3 h 21 min<br>
Overall bit rate mode : Variable<br>
Overall bit rate : 6 179 kb/s<br>
Frame rate : 25.000 FPS<br>
<br>
Video<br>
ID : 1089 (0x441)<br>
Menu ID : 1348 (0x544)<br>
Format : AVC<br>
Format/Info : Advanced Video Codec<br>
Format profile : High@L4<br>
Format settings : CABAC / 4 Ref Frames<br>
Format settings, CABAC : Yes<br>
Format settings, Reference fra : 4 frames<br>
Format settings, GOP : M=8, N=24<br>
Codec ID : 27<br>
Duration : 3 h 21 min<br>
Bit rate : 5 486 kb/s<br>
Width : 1 920 pixels<br>
Height : 1 080 pixels<br>
Display aspect ratio : 16:9<br>
Frame rate : 25.000 FPS<br>
Color space : YUV<br>
Chroma subsampling : 4:2:0<br>
Bit depth : 8 bits<br>
Scan type : MBAFF<br>
Scan type, store method : Interleaved fields<br>
Scan order : Top Field First<br>
Bits/(Pixel*Frame) : 0.106<br>
Stream size : 7.73 GiB (89%)<br>
Color range : Limited<br>
<br>
Audio<br>
ID : 1091 (0x443)<br>
Menu ID : 1348 (0x544)<br>
Format : AC-3<br>
Format/Info : Audio Coding 3<br>
Commercial name : Dolby Digital<br>
Codec ID : 6<br>
Duration : 3 h 21 min<br>
Bit rate mode : Constant<br>
Bit rate : 384 kb/s<br>
Channel(s) : 2 channels<br>
Channel layout : L R<br>
Sampling rate : 48.0 kHz<br>
Frame rate : 31.250 FPS (1536 SPF)<br>
Compression mode : Lossy<br>
Stream size : 554 MiB (6%)<br>
Language : English<br>
Service kind : Complete Main<br>
<br>
Text<br>
ID : 1092 (0x444)-801<br>
Menu ID : 1348 (0x544)<br>
Format : Teletext Subtitle<br>
Language : English</div>
</div><br>
<div class="bbCodeBlock bbCodeVfcHH HiddenContent">
<div class="attribution type">Hidden Content:</div>
<blockquote>You must reply before you can see the hidden data contained here.</blockquote>
</div><img src="https://www.aaronsouth.com/azamusic/mushroom50.jpg" class="bbCodeImage LbImage" alt="[​IMG]" data-url="https://www.aaronsouth.com/azamusic/mushroom50.jpg" style="">
<div class="messageTextEndMarker">&nbsp;</div>
</blockquote>
</article>]]></description>
                <author><![CDATA[azamusic]]></author>
                </item>

                </channel></rss>